<?xml version="1.0" encoding="UTF-8"?>
<svg xmlns="http://www.w3.org/2000/svg" xmlns:xlink="http://www.w3.org/1999/xlink" width="1500" height="1500" viewBox="0 0 1500 1500">
<rect x="-150" y="-150" width="1800" height="1800" fill="rgb(100%, 100%, 100%)" fill-opacity="1"/>
<path fill="none" stroke-width="0.005" stroke-linecap="square" stroke-linejoin="miter" stroke="rgb(0%, 0%, 0%)" stroke-opacity="1" stroke-miterlimit="10" d="M -1.2 -1.2 L -1.2 1.2 " transform="matrix(625, 0, 0, 625, 750, 750)"/>
<path fill="none" stroke-width="0.005" stroke-linecap="square" stroke-linejoin="miter" stroke="rgb(0%, 0%, 0%)" stroke-opacity="1" stroke-miterlimit="10" d="M -1.176 -1.2 L -1.176 1.2 " transform="matrix(625, 0, 0, 625, 750, 750)"/>
<path fill="none" stroke-width="0.005" stroke-linecap="square" stroke-linejoin="miter" stroke="rgb(0%, 0%, 0%)" stroke-opacity="1" stroke-miterlimit="10" d="M -1.152 -1.2 L -1.152 1.2 " transform="matrix(625, 0, 0, 625, 750, 750)"/>
<path fill="none" stroke-width="0.005" stroke-linecap="square" stroke-linejoin="miter" stroke="rgb(0%, 0%, 0%)" stroke-opacity="1" stroke-miterlimit="10" d="M -1.128 -1.2 L -1.128 1.2 " transform="matrix(625, 0, 0, 625, 750, 750)"/>
<path fill="none" stroke-width="0.005" stroke-linecap="square" stroke-linejoin="miter" stroke="rgb(0%, 0%, 0%)" stroke-opacity="1" stroke-miterlimit="10" d="M -1.104 -1.2 L -1.104 1.2 " transform="matrix(625, 0, 0, 625, 750, 750)"/>
<path fill="none" stroke-width="0.005" stroke-linecap="square" stroke-linejoin="miter" stroke="rgb(0%, 0%, 0%)" stroke-opacity="1" stroke-miterlimit="10" d="M -1.08 -1.2 L -1.08 1.2 " transform="matrix(625, 0, 0, 625, 750, 750)"/>
<path fill="none" stroke-width="0.005" stroke-linecap="square" stroke-linejoin="miter" stroke="rgb(0%, 0%, 0%)" stroke-opacity="1" stroke-miterlimit="10" d="M -1.056 -1.2 L -1.056 1.2 " transform="matrix(625, 0, 0, 625, 750, 750)"/>
<path fill="none" stroke-width="0.005" stroke-linecap="square" stroke-linejoin="miter" stroke="rgb(0%, 0%, 0%)" stroke-opacity="1" stroke-miterlimit="10" d="M -1.032 -1.2 L -1.032 1.2 " transform="matrix(625, 0, 0, 625, 750, 750)"/>
<path fill="none" stroke-width="0.005" stroke-linecap="square" stroke-linejoin="miter" stroke="rgb(0%, 0%, 0%)" stroke-opacity="1" stroke-miterlimit="10" d="M -1.008 -1.2 L -1.008 1.2 " transform="matrix(625, 0, 0, 625, 750, 750)"/>
<path fill="none" stroke-width="0.005" stroke-linecap="square" stroke-linejoin="miter" stroke="rgb(0%, 0%, 0%)" stroke-opacity="1" stroke-miterlimit="10" d="M -0.984 -1.2 L -0.984 1.2 " transform="matrix(625, 0, 0, 625, 750, 750)"/>
<path fill="none" stroke-width="0.005" stroke-linecap="square" stroke-linejoin="miter" stroke="rgb(0%, 0%, 0%)" stroke-opacity="1" stroke-miterlimit="10" d="M -0.96 -1.2 L -0.96 1.2 " transform="matrix(625, 0, 0, 625, 750, 750)"/>
<path fill="none" stroke-width="0.005" stroke-linecap="square" stroke-linejoin="miter" stroke="rgb(0%, 0%, 0%)" stroke-opacity="1" stroke-miterlimit="10" d="M -0.936 -1.2 L -0.936 1.2 " transform="matrix(625, 0, 0, 625, 750, 750)"/>
<path fill="none" stroke-width="0.005" stroke-linecap="square" stroke-linejoin="miter" stroke="rgb(0%, 0%, 0%)" stroke-opacity="1" stroke-miterlimit="10" d="M -0.912 -1.2 L -0.912 1.2 " transform="matrix(625, 0, 0, 625, 750, 750)"/>
<path fill="none" stroke-width="0.005" stroke-linecap="square" stroke-linejoin="miter" stroke="rgb(0%, 0%, 0%)" stroke-opacity="1" stroke-miterlimit="10" d="M -0.888 -1.2 L -0.888 1.2 " transform="matrix(625, 0, 0, 625, 750, 750)"/>
<path fill="none" stroke-width="0.005" stroke-linecap="square" stroke-linejoin="miter" stroke="rgb(0%, 0%, 0%)" stroke-opacity="1" stroke-miterlimit="10" d="M -0.864 -1.2 L -0.864 1.2 " transform="matrix(625, 0, 0, 625, 750, 750)"/>
<path fill="none" stroke-width="0.005" stroke-linecap="square" stroke-linejoin="miter" stroke="rgb(0%, 0%, 0%)" stroke-opacity="1" stroke-miterlimit="10" d="M -0.84 -1.2 L -0.84 1.2 " transform="matrix(625, 0, 0, 625, 750, 750)"/>
<path fill="none" stroke-width="0.005" stroke-linecap="square" stroke-linejoin="miter" stroke="rgb(0%, 0%, 0%)" stroke-opacity="1" stroke-miterlimit="10" d="M -0.816 -1.2 L -0.816 1.2 " transform="matrix(625, 0, 0, 625, 750, 750)"/>
<path fill="none" stroke-width="0.005" stroke-linecap="square" stroke-linejoin="miter" stroke="rgb(0%, 0%, 0%)" stroke-opacity="1" stroke-miterlimit="10" d="M -0.792 -1.2 L -0.792 1.2 " transform="matrix(625, 0, 0, 625, 750, 750)"/>
<path fill="none" stroke-width="0.005" stroke-linecap="square" stroke-linejoin="miter" stroke="rgb(0%, 0%, 0%)" stroke-opacity="1" stroke-miterlimit="10" d="M -0.768 -1.2 L -0.768 1.2 " transform="matrix(625, 0, 0, 625, 750, 750)"/>
<path fill="none" stroke-width="0.005" stroke-linecap="square" stroke-linejoin="miter" stroke="rgb(0%, 0%, 0%)" stroke-opacity="1" stroke-miterlimit="10" d="M -0.744 -1.2 L -0.744 1.2 " transform="matrix(625, 0, 0, 625, 750, 750)"/>
<path fill="none" stroke-width="0.005" stroke-linecap="square" stroke-linejoin="miter" stroke="rgb(0%, 0%, 0%)" stroke-opacity="1" stroke-miterlimit="10" d="M -0.72 -1.2 L -0.72 1.2 " transform="matrix(625, 0, 0, 625, 750, 750)"/>
<path fill="none" stroke-width="0.005" stroke-linecap="square" stroke-linejoin="miter" stroke="rgb(0%, 0%, 0%)" stroke-opacity="1" stroke-miterlimit="10" d="M -0.696 -1.2 L -0.696 1.2 " transform="matrix(625, 0, 0, 625, 750, 750)"/>
<path fill="none" stroke-width="0.005" stroke-linecap="square" stroke-linejoin="miter" stroke="rgb(0%, 0%, 0%)" stroke-opacity="1" stroke-miterlimit="10" d="M -0.672 -1.2 L -0.672 1.2 " transform="matrix(625, 0, 0, 625, 750, 750)"/>
<path fill="none" stroke-width="0.005" stroke-linecap="square" stroke-linejoin="miter" stroke="rgb(0%, 0%, 0%)" stroke-opacity="1" stroke-miterlimit="10" d="M -0.648 -1.2 L -0.648 1.2 " transform="matrix(625, 0, 0, 625, 750, 750)"/>
<path fill="none" stroke-width="0.005" stroke-linecap="square" stroke-linejoin="miter" stroke="rgb(0%, 0%, 0%)" stroke-opacity="1" stroke-miterlimit="10" d="M -0.624 -1.2 L -0.624 1.2 " transform="matrix(625, 0, 0, 625, 750, 750)"/>
<path fill="none" stroke-width="0.005" stroke-linecap="square" stroke-linejoin="miter" stroke="rgb(0%, 0%, 0%)" stroke-opacity="1" stroke-miterlimit="10" d="M -0.6 -1.2 L -0.6 1.2 " transform="matrix(625, 0, 0, 625, 750, 750)"/>
<path fill="none" stroke-width="0.005" stroke-linecap="square" stroke-linejoin="miter" stroke="rgb(0%, 0%, 0%)" stroke-opacity="1" stroke-miterlimit="10" d="M -0.576 -1.2 L -0.576 1.2 " transform="matrix(625, 0, 0, 625, 750, 750)"/>
<path fill="none" stroke-width="0.005" stroke-linecap="square" stroke-linejoin="miter" stroke="rgb(0%, 0%, 0%)" stroke-opacity="1" stroke-miterlimit="10" d="M -0.552 -1.2 L -0.552 1.2 " transform="matrix(625, 0, 0, 625, 750, 750)"/>
<path fill="none" stroke-width="0.005" stroke-linecap="square" stroke-linejoin="miter" stroke="rgb(0%, 0%, 0%)" stroke-opacity="1" stroke-miterlimit="10" d="M -0.528 -1.2 L -0.528 1.2 " transform="matrix(625, 0, 0, 625, 750, 750)"/>
<path fill="none" stroke-width="0.005" stroke-linecap="square" stroke-linejoin="miter" stroke="rgb(0%, 0%, 0%)" stroke-opacity="1" stroke-miterlimit="10" d="M -0.504 -1.2 L -0.504 1.2 " transform="matrix(625, 0, 0, 625, 750, 750)"/>
<path fill="none" stroke-width="0.005" stroke-linecap="square" stroke-linejoin="miter" stroke="rgb(0%, 0%, 0%)" stroke-opacity="1" stroke-miterlimit="10" d="M -0.48 -1.2 L -0.48 1.2 " transform="matrix(625, 0, 0, 625, 750, 750)"/>
<path fill="none" stroke-width="0.005" stroke-linecap="square" stroke-linejoin="miter" stroke="rgb(0%, 0%, 0%)" stroke-opacity="1" stroke-miterlimit="10" d="M -0.456 -1.2 L -0.456 1.2 " transform="matrix(625, 0, 0, 625, 750, 750)"/>
<path fill="none" stroke-width="0.005" stroke-linecap="square" stroke-linejoin="miter" stroke="rgb(0%, 0%, 0%)" stroke-opacity="1" stroke-miterlimit="10" d="M -0.432 -1.2 L -0.432 1.2 " transform="matrix(625, 0, 0, 625, 750, 750)"/>
<path fill="none" stroke-width="0.005" stroke-linecap="square" stroke-linejoin="miter" stroke="rgb(0%, 0%, 0%)" stroke-opacity="1" stroke-miterlimit="10" d="M -0.408 -1.2 L -0.408 1.2 " transform="matrix(625, 0, 0, 625, 750, 750)"/>
<path fill="none" stroke-width="0.005" stroke-linecap="square" stroke-linejoin="miter" stroke="rgb(0%, 0%, 0%)" stroke-opacity="1" stroke-miterlimit="10" d="M -0.384 -1.2 L -0.384 1.2 " transform="matrix(625, 0, 0, 625, 750, 750)"/>
<path fill="none" stroke-width="0.005" stroke-linecap="square" stroke-linejoin="miter" stroke="rgb(0%, 0%, 0%)" stroke-opacity="1" stroke-miterlimit="10" d="M -0.36 -1.2 L -0.36 1.2 " transform="matrix(625, 0, 0, 625, 750, 750)"/>
<path fill="none" stroke-width="0.005" stroke-linecap="square" stroke-linejoin="miter" stroke="rgb(0%, 0%, 0%)" stroke-opacity="1" stroke-miterlimit="10" d="M -0.336 -1.2 L -0.336 1.2 " transform="matrix(625, 0, 0, 625, 750, 750)"/>
<path fill="none" stroke-width="0.005" stroke-linecap="square" stroke-linejoin="miter" stroke="rgb(0%, 0%, 0%)" stroke-opacity="1" stroke-miterlimit="10" d="M -0.312 -1.2 L -0.312 1.2 " transform="matrix(625, 0, 0, 625, 750, 750)"/>
<path fill="none" stroke-width="0.005" stroke-linecap="square" stroke-linejoin="miter" stroke="rgb(0%, 0%, 0%)" stroke-opacity="1" stroke-miterlimit="10" d="M -0.288 -1.2 L -0.288 1.2 " transform="matrix(625, 0, 0, 625, 750, 750)"/>
<path fill="none" stroke-width="0.005" stroke-linecap="square" stroke-linejoin="miter" stroke="rgb(0%, 0%, 0%)" stroke-opacity="1" stroke-miterlimit="10" d="M -0.264 -1.2 L -0.264 1.2 " transform="matrix(625, 0, 0, 625, 750, 750)"/>
<path fill="none" stroke-width="0.005" stroke-linecap="square" stroke-linejoin="miter" stroke="rgb(0%, 0%, 0%)" stroke-opacity="1" stroke-miterlimit="10" d="M -0.24 -1.2 L -0.24 1.2 " transform="matrix(625, 0, 0, 625, 750, 750)"/>
<path fill="none" stroke-width="0.005" stroke-linecap="square" stroke-linejoin="miter" stroke="rgb(0%, 0%, 0%)" stroke-opacity="1" stroke-miterlimit="10" d="M -0.216 -1.2 L -0.216 1.2 " transform="matrix(625, 0, 0, 625, 750, 750)"/>
<path fill="none" stroke-width="0.005" stroke-linecap="square" stroke-linejoin="miter" stroke="rgb(0%, 0%, 0%)" stroke-opacity="1" stroke-miterlimit="10" d="M -0.192 -1.2 L -0.192 1.2 " transform="matrix(625, 0, 0, 625, 750, 750)"/>
<path fill="none" stroke-width="0.005" stroke-linecap="square" stroke-linejoin="miter" stroke="rgb(0%, 0%, 0%)" stroke-opacity="1" stroke-miterlimit="10" d="M -0.168 -1.2 L -0.168 1.2 " transform="matrix(625, 0, 0, 625, 750, 750)"/>
<path fill="none" stroke-width="0.005" stroke-linecap="square" stroke-linejoin="miter" stroke="rgb(0%, 0%, 0%)" stroke-opacity="1" stroke-miterlimit="10" d="M -0.144 -1.2 L -0.144 1.2 " transform="matrix(625, 0, 0, 625, 750, 750)"/>
<path fill="none" stroke-width="0.005" stroke-linecap="square" stroke-linejoin="miter" stroke="rgb(0%, 0%, 0%)" stroke-opacity="1" stroke-miterlimit="10" d="M -0.12 -1.2 L -0.12 1.2 " transform="matrix(625, 0, 0, 625, 750, 750)"/>
<path fill="none" stroke-width="0.005" stroke-linecap="square" stroke-linejoin="miter" stroke="rgb(0%, 0%, 0%)" stroke-opacity="1" stroke-miterlimit="10" d="M -0.096 -1.2 L -0.096 1.2 " transform="matrix(625, 0, 0, 625, 750, 750)"/>
<path fill="none" stroke-width="0.005" stroke-linecap="square" stroke-linejoin="miter" stroke="rgb(0%, 0%, 0%)" stroke-opacity="1" stroke-miterlimit="10" d="M -0.072 -1.2 L -0.072 1.2 " transform="matrix(625, 0, 0, 625, 750, 750)"/>
<path fill="none" stroke-width="0.005" stroke-linecap="square" stroke-linejoin="miter" stroke="rgb(0%, 0%, 0%)" stroke-opacity="1" stroke-miterlimit="10" d="M -0.048 -1.2 L -0.048 1.2 " transform="matrix(625, 0, 0, 625, 750, 750)"/>
<path fill="none" stroke-width="0.005" stroke-linecap="square" stroke-linejoin="miter" stroke="rgb(0%, 0%, 0%)" stroke-opacity="1" stroke-miterlimit="10" d="M -0.024 -1.2 L -0.024 1.2 " transform="matrix(625, 0, 0, 625, 750, 750)"/>
<path fill="none" stroke-width="0.005" stroke-linecap="square" stroke-linejoin="miter" stroke="rgb(0%, 0%, 0%)" stroke-opacity="1" stroke-miterlimit="10" d="M 0 -1.2 L 0 1.2 " transform="matrix(625, 0, 0, 625, 750, 750)"/>
<path fill="none" stroke-width="0.005" stroke-linecap="square" stroke-linejoin="miter" stroke="rgb(0%, 0%, 0%)" stroke-opacity="1" stroke-miterlimit="10" d="M 0.024 -1.2 L 0.024 1.2 " transform="matrix(625, 0, 0, 625, 750, 750)"/>
<path fill="none" stroke-width="0.005" stroke-linecap="square" stroke-linejoin="miter" stroke="rgb(0%, 0%, 0%)" stroke-opacity="1" stroke-miterlimit="10" d="M 0.048 -1.2 L 0.048 1.2 " transform="matrix(625, 0, 0, 625, 750, 750)"/>
<path fill="none" stroke-width="0.005" stroke-linecap="square" stroke-linejoin="miter" stroke="rgb(0%, 0%, 0%)" stroke-opacity="1" stroke-miterlimit="10" d="M 0.072 -1.2 L 0.072 1.2 " transform="matrix(625, 0, 0, 625, 750, 750)"/>
<path fill="none" stroke-width="0.005" stroke-linecap="square" stroke-linejoin="miter" stroke="rgb(0%, 0%, 0%)" stroke-opacity="1" stroke-miterlimit="10" d="M 0.096 -1.2 L 0.096 1.2 " transform="matrix(625, 0, 0, 625, 750, 750)"/>
<path fill="none" stroke-width="0.005" stroke-linecap="square" stroke-linejoin="miter" stroke="rgb(0%, 0%, 0%)" stroke-opacity="1" stroke-miterlimit="10" d="M 0.12 -1.2 L 0.12 1.2 " transform="matrix(625, 0, 0, 625, 750, 750)"/>
<path fill="none" stroke-width="0.005" stroke-linecap="square" stroke-linejoin="miter" stroke="rgb(0%, 0%, 0%)" stroke-opacity="1" stroke-miterlimit="10" d="M 0.144 -1.2 L 0.144 1.2 " transform="matrix(625, 0, 0, 625, 750, 750)"/>
<path fill="none" stroke-width="0.005" stroke-linecap="square" stroke-linejoin="miter" stroke="rgb(0%, 0%, 0%)" stroke-opacity="1" stroke-miterlimit="10" d="M 0.168 -1.2 L 0.168 1.2 " transform="matrix(625, 0, 0, 625, 750, 750)"/>
<path fill="none" stroke-width="0.005" stroke-linecap="square" stroke-linejoin="miter" stroke="rgb(0%, 0%, 0%)" stroke-opacity="1" stroke-miterlimit="10" d="M 0.192 -1.2 L 0.192 1.2 " transform="matrix(625, 0, 0, 625, 750, 750)"/>
<path fill="none" stroke-width="0.005" stroke-linecap="square" stroke-linejoin="miter" stroke="rgb(0%, 0%, 0%)" stroke-opacity="1" stroke-miterlimit="10" d="M 0.216 -1.2 L 0.216 1.2 " transform="matrix(625, 0, 0, 625, 750, 750)"/>
<path fill="none" stroke-width="0.005" stroke-linecap="square" stroke-linejoin="miter" stroke="rgb(0%, 0%, 0%)" stroke-opacity="1" stroke-miterlimit="10" d="M 0.24 -1.2 L 0.24 1.2 " transform="matrix(625, 0, 0, 625, 750, 750)"/>
<path fill="none" stroke-width="0.005" stroke-linecap="square" stroke-linejoin="miter" stroke="rgb(0%, 0%, 0%)" stroke-opacity="1" stroke-miterlimit="10" d="M 0.264 -1.2 L 0.264 1.2 " transform="matrix(625, 0, 0, 625, 750, 750)"/>
<path fill="none" stroke-width="0.005" stroke-linecap="square" stroke-linejoin="miter" stroke="rgb(0%, 0%, 0%)" stroke-opacity="1" stroke-miterlimit="10" d="M 0.288 -1.2 L 0.288 1.2 " transform="matrix(625, 0, 0, 625, 750, 750)"/>
<path fill="none" stroke-width="0.005" stroke-linecap="square" stroke-linejoin="miter" stroke="rgb(0%, 0%, 0%)" stroke-opacity="1" stroke-miterlimit="10" d="M 0.312 -1.2 L 0.312 1.2 " transform="matrix(625, 0, 0, 625, 750, 750)"/>
<path fill="none" stroke-width="0.005" stroke-linecap="square" stroke-linejoin="miter" stroke="rgb(0%, 0%, 0%)" stroke-opacity="1" stroke-miterlimit="10" d="M 0.336 -1.2 L 0.336 1.2 " transform="matrix(625, 0, 0, 625, 750, 750)"/>
<path fill="none" stroke-width="0.005" stroke-linecap="square" stroke-linejoin="miter" stroke="rgb(0%, 0%, 0%)" stroke-opacity="1" stroke-miterlimit="10" d="M 0.36 -1.2 L 0.36 1.2 " transform="matrix(625, 0, 0, 625, 750, 750)"/>
<path fill="none" stroke-width="0.005" stroke-linecap="square" stroke-linejoin="miter" stroke="rgb(0%, 0%, 0%)" stroke-opacity="1" stroke-miterlimit="10" d="M 0.384 -1.2 L 0.384 1.2 " transform="matrix(625, 0, 0, 625, 750, 750)"/>
<path fill="none" stroke-width="0.005" stroke-linecap="square" stroke-linejoin="miter" stroke="rgb(0%, 0%, 0%)" stroke-opacity="1" stroke-miterlimit="10" d="M 0.408 -1.2 L 0.408 1.2 " transform="matrix(625, 0, 0, 625, 750, 750)"/>
<path fill="none" stroke-width="0.005" stroke-linecap="square" stroke-linejoin="miter" stroke="rgb(0%, 0%, 0%)" stroke-opacity="1" stroke-miterlimit="10" d="M 0.432 -1.2 L 0.432 1.2 " transform="matrix(625, 0, 0, 625, 750, 750)"/>
<path fill="none" stroke-width="0.005" stroke-linecap="square" stroke-linejoin="miter" stroke="rgb(0%, 0%, 0%)" stroke-opacity="1" stroke-miterlimit="10" d="M 0.456 -1.2 L 0.456 1.2 " transform="matrix(625, 0, 0, 625, 750, 750)"/>
<path fill="none" stroke-width="0.005" stroke-linecap="square" stroke-linejoin="miter" stroke="rgb(0%, 0%, 0%)" stroke-opacity="1" stroke-miterlimit="10" d="M 0.48 -1.2 L 0.48 1.2 " transform="matrix(625, 0, 0, 625, 750, 750)"/>
<path fill="none" stroke-width="0.005" stroke-linecap="square" stroke-linejoin="miter" stroke="rgb(0%, 0%, 0%)" stroke-opacity="1" stroke-miterlimit="10" d="M 0.504 -1.2 L 0.504 1.2 " transform="matrix(625, 0, 0, 625, 750, 750)"/>
<path fill="none" stroke-width="0.005" stroke-linecap="square" stroke-linejoin="miter" stroke="rgb(0%, 0%, 0%)" stroke-opacity="1" stroke-miterlimit="10" d="M 0.528 -1.2 L 0.528 1.2 " transform="matrix(625, 0, 0, 625, 750, 750)"/>
<path fill="none" stroke-width="0.005" stroke-linecap="square" stroke-linejoin="miter" stroke="rgb(0%, 0%, 0%)" stroke-opacity="1" stroke-miterlimit="10" d="M 0.552 -1.2 L 0.552 1.2 " transform="matrix(625, 0, 0, 625, 750, 750)"/>
<path fill="none" stroke-width="0.005" stroke-linecap="square" stroke-linejoin="miter" stroke="rgb(0%, 0%, 0%)" stroke-opacity="1" stroke-miterlimit="10" d="M 0.576 -1.2 L 0.576 1.2 " transform="matrix(625, 0, 0, 625, 750, 750)"/>
<path fill="none" stroke-width="0.005" stroke-linecap="square" stroke-linejoin="miter" stroke="rgb(0%, 0%, 0%)" stroke-opacity="1" stroke-miterlimit="10" d="M 0.6 -1.2 L 0.6 1.2 " transform="matrix(625, 0, 0, 625, 750, 750)"/>
<path fill="none" stroke-width="0.005" stroke-linecap="square" stroke-linejoin="miter" stroke="rgb(0%, 0%, 0%)" stroke-opacity="1" stroke-miterlimit="10" d="M 0.624 -1.2 L 0.624 1.2 " transform="matrix(625, 0, 0, 625, 750, 750)"/>
<path fill="none" stroke-width="0.005" stroke-linecap="square" stroke-linejoin="miter" stroke="rgb(0%, 0%, 0%)" stroke-opacity="1" stroke-miterlimit="10" d="M 0.648 -1.2 L 0.648 1.2 " transform="matrix(625, 0, 0, 625, 750, 750)"/>
<path fill="none" stroke-width="0.005" stroke-linecap="square" stroke-linejoin="miter" stroke="rgb(0%, 0%, 0%)" stroke-opacity="1" stroke-miterlimit="10" d="M 0.672 -1.2 L 0.672 1.2 " transform="matrix(625, 0, 0, 625, 750, 750)"/>
<path fill="none" stroke-width="0.005" stroke-linecap="square" stroke-linejoin="miter" stroke="rgb(0%, 0%, 0%)" stroke-opacity="1" stroke-miterlimit="10" d="M 0.696 -1.2 L 0.696 1.2 " transform="matrix(625, 0, 0, 625, 750, 750)"/>
<path fill="none" stroke-width="0.005" stroke-linecap="square" stroke-linejoin="miter" stroke="rgb(0%, 0%, 0%)" stroke-opacity="1" stroke-miterlimit="10" d="M 0.72 -1.2 L 0.72 1.2 " transform="matrix(625, 0, 0, 625, 750, 750)"/>
<path fill="none" stroke-width="0.005" stroke-linecap="square" stroke-linejoin="miter" stroke="rgb(0%, 0%, 0%)" stroke-opacity="1" stroke-miterlimit="10" d="M 0.744 -1.2 L 0.744 1.2 " transform="matrix(625, 0, 0, 625, 750, 750)"/>
<path fill="none" stroke-width="0.005" stroke-linecap="square" stroke-linejoin="miter" stroke="rgb(0%, 0%, 0%)" stroke-opacity="1" stroke-miterlimit="10" d="M 0.768 -1.2 L 0.768 1.2 " transform="matrix(625, 0, 0, 625, 750, 750)"/>
<path fill="none" stroke-width="0.005" stroke-linecap="square" stroke-linejoin="miter" stroke="rgb(0%, 0%, 0%)" stroke-opacity="1" stroke-miterlimit="10" d="M 0.792 -1.2 L 0.792 1.2 " transform="matrix(625, 0, 0, 625, 750, 750)"/>
<path fill="none" stroke-width="0.005" stroke-linecap="square" stroke-linejoin="miter" stroke="rgb(0%, 0%, 0%)" stroke-opacity="1" stroke-miterlimit="10" d="M 0.816 -1.2 L 0.816 1.2 " transform="matrix(625, 0, 0, 625, 750, 750)"/>
<path fill="none" stroke-width="0.005" stroke-linecap="square" stroke-linejoin="miter" stroke="rgb(0%, 0%, 0%)" stroke-opacity="1" stroke-miterlimit="10" d="M 0.84 -1.2 L 0.84 1.2 " transform="matrix(625, 0, 0, 625, 750, 750)"/>
<path fill="none" stroke-width="0.005" stroke-linecap="square" stroke-linejoin="miter" stroke="rgb(0%, 0%, 0%)" stroke-opacity="1" stroke-miterlimit="10" d="M 0.864 -1.2 L 0.864 1.2 " transform="matrix(625, 0, 0, 625, 750, 750)"/>
<path fill="none" stroke-width="0.005" stroke-linecap="square" stroke-linejoin="miter" stroke="rgb(0%, 0%, 0%)" stroke-opacity="1" stroke-miterlimit="10" d="M 0.888 -1.2 L 0.888 1.2 " transform="matrix(625, 0, 0, 625, 750, 750)"/>
<path fill="none" stroke-width="0.005" stroke-linecap="square" stroke-linejoin="miter" stroke="rgb(0%, 0%, 0%)" stroke-opacity="1" stroke-miterlimit="10" d="M 0.912 -1.2 L 0.912 1.2 " transform="matrix(625, 0, 0, 625, 750, 750)"/>
<path fill="none" stroke-width="0.005" stroke-linecap="square" stroke-linejoin="miter" stroke="rgb(0%, 0%, 0%)" stroke-opacity="1" stroke-miterlimit="10" d="M 0.936 -1.2 L 0.936 1.2 " transform="matrix(625, 0, 0, 625, 750, 750)"/>
<path fill="none" stroke-width="0.005" stroke-linecap="square" stroke-linejoin="miter" stroke="rgb(0%, 0%, 0%)" stroke-opacity="1" stroke-miterlimit="10" d="M 0.96 -1.2 L 0.96 1.2 " transform="matrix(625, 0, 0, 625, 750, 750)"/>
<path fill="none" stroke-width="0.005" stroke-linecap="square" stroke-linejoin="miter" stroke="rgb(0%, 0%, 0%)" stroke-opacity="1" stroke-miterlimit="10" d="M 0.984 -1.2 L 0.984 1.2 " transform="matrix(625, 0, 0, 625, 750, 750)"/>
<path fill="none" stroke-width="0.005" stroke-linecap="square" stroke-linejoin="miter" stroke="rgb(0%, 0%, 0%)" stroke-opacity="1" stroke-miterlimit="10" d="M 1.008 -1.2 L 1.008 1.2 " transform="matrix(625, 0, 0, 625, 750, 750)"/>
<path fill="none" stroke-width="0.005" stroke-linecap="square" stroke-linejoin="miter" stroke="rgb(0%, 0%, 0%)" stroke-opacity="1" stroke-miterlimit="10" d="M 1.032 -1.2 L 1.032 1.2 " transform="matrix(625, 0, 0, 625, 750, 750)"/>
<path fill="none" stroke-width="0.005" stroke-linecap="square" stroke-linejoin="miter" stroke="rgb(0%, 0%, 0%)" stroke-opacity="1" stroke-miterlimit="10" d="M 1.056 -1.2 L 1.056 1.2 " transform="matrix(625, 0, 0, 625, 750, 750)"/>
<path fill="none" stroke-width="0.005" stroke-linecap="square" stroke-linejoin="miter" stroke="rgb(0%, 0%, 0%)" stroke-opacity="1" stroke-miterlimit="10" d="M 1.08 -1.2 L 1.08 1.2 " transform="matrix(625, 0, 0, 625, 750, 750)"/>
<path fill="none" stroke-width="0.005" stroke-linecap="square" stroke-linejoin="miter" stroke="rgb(0%, 0%, 0%)" stroke-opacity="1" stroke-miterlimit="10" d="M 1.104 -1.2 L 1.104 1.2 " transform="matrix(625, 0, 0, 625, 750, 750)"/>
<path fill="none" stroke-width="0.005" stroke-linecap="square" stroke-linejoin="miter" stroke="rgb(0%, 0%, 0%)" stroke-opacity="1" stroke-miterlimit="10" d="M 1.128 -1.2 L 1.128 1.2 " transform="matrix(625, 0, 0, 625, 750, 750)"/>
<path fill="none" stroke-width="0.005" stroke-linecap="square" stroke-linejoin="miter" stroke="rgb(0%, 0%, 0%)" stroke-opacity="1" stroke-miterlimit="10" d="M 1.152 -1.2 L 1.152 1.2 " transform="matrix(625, 0, 0, 625, 750, 750)"/>
<path fill="none" stroke-width="0.005" stroke-linecap="square" stroke-linejoin="miter" stroke="rgb(0%, 0%, 0%)" stroke-opacity="1" stroke-miterlimit="10" d="M 1.176 -1.2 L 1.176 1.2 " transform="matrix(625, 0, 0, 625, 750, 750)"/>
<path fill="none" stroke-width="0.0095" stroke-linecap="square" stroke-linejoin="miter" stroke="rgb(0%, 0%, 0%)" stroke-opacity="1" stroke-miterlimit="10" d="M 0.16 0 C 0.16 0.0883625 0.0883625 0.16 0 0.16 C -0.0883625 0.16 -0.16 0.0883625 -0.16 0 C -0.16 -0.0883625 -0.0883625 -0.16 0 -0.16 C 0.0883625 -0.16 0.16 -0.0883625 0.16 0 " transform="matrix(625, 0, 0, 625, 750, 750)"/>
<path fill="none" stroke-width="0.009025" stroke-linecap="square" stroke-linejoin="miter" stroke="rgb(0%, 0%, 0%)" stroke-opacity="1" stroke-miterlimit="10" d="M 0.208 0 C 0.208 0.114875 0.114875 0.208 0 0.208 C -0.114875 0.208 -0.208 0.114875 -0.208 0 C -0.208 -0.114875 -0.114875 -0.208 0 -0.208 C 0.114875 -0.208 0.208 -0.114875 0.208 0 " transform="matrix(625, 0, 0, 625, 750, 750)"/>
<path fill="none" stroke-width="0.00857375" stroke-linecap="square" stroke-linejoin="miter" stroke="rgb(0%, 0%, 0%)" stroke-opacity="1" stroke-miterlimit="10" d="M 0.2496 0 C 0.2496 0.13785 0.13785 0.2496 0 0.2496 C -0.13785 0.2496 -0.2496 0.13785 -0.2496 0 C -0.2496 -0.13785 -0.13785 -0.2496 0 -0.2496 C 0.13785 -0.2496 0.2496 -0.13785 0.2496 0 " transform="matrix(625, 0, 0, 625, 750, 750)"/>
<path fill="none" stroke-width="0.00814506" stroke-linecap="square" stroke-linejoin="miter" stroke="rgb(0%, 0%, 0%)" stroke-opacity="1" stroke-miterlimit="10" d="M 0.287038 0 C 0.287038 0.158525 0.158525 0.287038 0 0.287038 C -0.158525 0.287038 -0.287037 0.158525 -0.287037 0 C -0.287037 -0.158525 -0.158525 -0.287037 0 -0.287037 C 0.158525 -0.287037 0.287038 -0.158525 0.287038 0 " transform="matrix(625, 0, 0, 625, 750, 750)"/>
<path fill="none" stroke-width="0.00773781" stroke-linecap="square" stroke-linejoin="miter" stroke="rgb(0%, 0%, 0%)" stroke-opacity="1" stroke-miterlimit="10" d="M 0.321488 0 C 0.321488 0.17755 0.17755 0.321488 0 0.321488 C -0.17755 0.321488 -0.321487 0.17755 -0.321487 0 C -0.321487 -0.17755 -0.17755 -0.321487 0 -0.321487 C 0.17755 -0.321487 0.321488 -0.17755 0.321488 0 " transform="matrix(625, 0, 0, 625, 750, 750)"/>
<path fill="none" stroke-width="0.00735092" stroke-linecap="square" stroke-linejoin="miter" stroke="rgb(0%, 0%, 0%)" stroke-opacity="1" stroke-miterlimit="10" d="M 0.353631 0 C 0.353631 0.195306 0.195306 0.353631 0 0.353631 C -0.195306 0.353631 -0.353631 0.195306 -0.353631 0 C -0.353631 -0.195306 -0.195306 -0.353631 0 -0.353631 C 0.195306 -0.353631 0.353631 -0.195306 0.353631 0 " transform="matrix(625, 0, 0, 625, 750, 750)"/>
<path fill="none" stroke-width="0.00698337" stroke-linecap="square" stroke-linejoin="miter" stroke="rgb(0%, 0%, 0%)" stroke-opacity="1" stroke-miterlimit="10" d="M 0.383944 0 C 0.383944 0.212044 0.212044 0.383944 0 0.383944 C -0.212044 0.383944 -0.383944 0.212044 -0.383944 0 C -0.383944 -0.212044 -0.212044 -0.383944 0 -0.383944 C 0.212044 -0.383944 0.383944 -0.212044 0.383944 0 " transform="matrix(625, 0, 0, 625, 750, 750)"/>
<path fill="none" stroke-width="0.0066342" stroke-linecap="square" stroke-linejoin="miter" stroke="rgb(0%, 0%, 0%)" stroke-opacity="1" stroke-miterlimit="10" d="M 0.412738 0 C 0.412738 0.22795 0.22795 0.412738 0 0.412738 C -0.22795 0.412738 -0.412737 0.22795 -0.412737 0 C -0.412737 -0.22795 -0.22795 -0.412737 0 -0.412737 C 0.22795 -0.412737 0.412738 -0.22795 0.412738 0 " transform="matrix(625, 0, 0, 625, 750, 750)"/>
<path fill="none" stroke-width="0.00630249" stroke-linecap="square" stroke-linejoin="miter" stroke="rgb(0%, 0%, 0%)" stroke-opacity="1" stroke-miterlimit="10" d="M 0.440256 0 C 0.440256 0.24315 0.24315 0.440256 0 0.440256 C -0.24315 0.440256 -0.440256 0.24315 -0.440256 0 C -0.440256 -0.24315 -0.24315 -0.440256 0 -0.440256 C 0.24315 -0.440256 0.440256 -0.24315 0.440256 0 " transform="matrix(625, 0, 0, 625, 750, 750)"/>
<path fill="none" stroke-width="0.00598737" stroke-linecap="square" stroke-linejoin="miter" stroke="rgb(0%, 0%, 0%)" stroke-opacity="1" stroke-miterlimit="10" d="M 0.466675 0 C 0.466675 0.257738 0.257738 0.466675 0 0.466675 C -0.257737 0.466675 -0.466675 0.257738 -0.466675 0 C -0.466675 -0.257737 -0.257737 -0.466675 0 -0.466675 C 0.257738 -0.466675 0.466675 -0.257737 0.466675 0 " transform="matrix(625, 0, 0, 625, 750, 750)"/>
<path fill="none" stroke-width="0.005688" stroke-linecap="square" stroke-linejoin="miter" stroke="rgb(0%, 0%, 0%)" stroke-opacity="1" stroke-miterlimit="10" d="M 0.492125 0 C 0.492125 0.271794 0.271794 0.492125 0 0.492125 C -0.271794 0.492125 -0.492125 0.271794 -0.492125 0 C -0.492125 -0.271794 -0.271794 -0.492125 0 -0.492125 C 0.271794 -0.492125 0.492125 -0.271794 0.492125 0 " transform="matrix(625, 0, 0, 625, 750, 750)"/>
<path fill="none" stroke-width="0.00541714" stroke-linecap="square" stroke-linejoin="miter" stroke="rgb(0%, 0%, 0%)" stroke-opacity="1" stroke-miterlimit="10" d="M 0.516731 0 C 0.516731 0.285381 0.285381 0.516731 0 0.516731 C -0.285381 0.516731 -0.516731 0.285381 -0.516731 0 C -0.516731 -0.285381 -0.285381 -0.516731 0 -0.516731 C 0.285381 -0.516731 0.516731 -0.285381 0.516731 0 " transform="matrix(625, 0, 0, 625, 750, 750)"/>
<path fill="none" stroke-width="0.00517815" stroke-linecap="square" stroke-linejoin="miter" stroke="rgb(0%, 0%, 0%)" stroke-opacity="1" stroke-miterlimit="10" d="M 0.540581 0 C 0.540581 0.298556 0.298556 0.540581 0 0.540581 C -0.298556 0.540581 -0.540581 0.298556 -0.540581 0 C -0.540581 -0.298556 -0.298556 -0.540581 0 -0.540581 C 0.298556 -0.540581 0.540581 -0.298556 0.540581 0 " transform="matrix(625, 0, 0, 625, 750, 750)"/>
<path fill="none" stroke-width="0.00496535" stroke-linecap="square" stroke-linejoin="miter" stroke="rgb(0%, 0%, 0%)" stroke-opacity="1" stroke-miterlimit="10" d="M 0.56375 0 C 0.56375 0.31135 0.31135 0.56375 0 0.56375 C -0.31135 0.56375 -0.56375 0.31135 -0.56375 0 C -0.56375 -0.31135 -0.31135 -0.56375 0 -0.56375 C 0.31135 -0.56375 0.56375 -0.31135 0.56375 0 " transform="matrix(625, 0, 0, 625, 750, 750)"/>
<path fill="none" stroke-width="0.00477438" stroke-linecap="square" stroke-linejoin="miter" stroke="rgb(0%, 0%, 0%)" stroke-opacity="1" stroke-miterlimit="10" d="M 0.5863 0 C 0.5863 0.323806 0.323806 0.5863 0 0.5863 C -0.323806 0.5863 -0.5863 0.323806 -0.5863 0 C -0.5863 -0.323806 -0.323806 -0.5863 0 -0.5863 C 0.323806 -0.5863 0.5863 -0.323806 0.5863 0 " transform="matrix(625, 0, 0, 625, 750, 750)"/>
<path fill="none" stroke-width="0.00460181" stroke-linecap="square" stroke-linejoin="miter" stroke="rgb(0%, 0%, 0%)" stroke-opacity="1" stroke-miterlimit="10" d="M 0.608288 0 C 0.608288 0.217319 0.49235 0.418131 0.304144 0.526794 C 0.115938 0.63545 -0.115937 0.63545 -0.304144 0.526794 C -0.49235 0.418131 -0.608287 0.217319 -0.608287 0 C -0.608287 -0.217319 -0.49235 -0.418131 -0.304144 -0.526794 C -0.115937 -0.63545 0.115938 -0.63545 0.304144 -0.526794 C 0.49235 -0.418131 0.608288 -0.217319 0.608288 0 " transform="matrix(625, 0, 0, 625, 750, 750)"/>
<path fill="none" stroke-width="0.00444493" stroke-linecap="square" stroke-linejoin="miter" stroke="rgb(0%, 0%, 0%)" stroke-opacity="1" stroke-miterlimit="10" d="M 0.629756 0 C 0.629756 0.224988 0.509725 0.432888 0.314875 0.545381 C 0.120031 0.657881 -0.120031 0.657881 -0.314875 0.545381 C -0.509725 0.432888 -0.629756 0.224988 -0.629756 0 C -0.629756 -0.224987 -0.509725 -0.432887 -0.314875 -0.545381 C -0.120031 -0.657881 0.120031 -0.657881 0.314875 -0.545381 C 0.509725 -0.432887 0.629756 -0.224987 0.629756 0 " transform="matrix(625, 0, 0, 625, 750, 750)"/>
<path fill="none" stroke-width="0.00430154" stroke-linecap="square" stroke-linejoin="miter" stroke="rgb(0%, 0%, 0%)" stroke-opacity="1" stroke-miterlimit="10" d="M 0.65075 0 C 0.65075 0.232488 0.526713 0.447319 0.325375 0.563563 C 0.124031 0.679806 -0.124031 0.679806 -0.325375 0.563563 C -0.526712 0.447319 -0.65075 0.232488 -0.65075 0 C -0.65075 -0.232487 -0.526712 -0.447319 -0.325375 -0.563562 C -0.124031 -0.679806 0.124031 -0.679806 0.325375 -0.563562 C 0.526713 -0.447319 0.65075 -0.232487 0.65075 0 " transform="matrix(625, 0, 0, 625, 750, 750)"/>
<path fill="none" stroke-width="0.00416986" stroke-linecap="square" stroke-linejoin="miter" stroke="rgb(0%, 0%, 0%)" stroke-opacity="1" stroke-miterlimit="10" d="M 0.6713 0 C 0.6713 0.239831 0.54335 0.461444 0.33565 0.581363 C 0.12795 0.701275 -0.12795 0.701275 -0.33565 0.581363 C -0.54335 0.461444 -0.6713 0.239831 -0.6713 0 C -0.6713 -0.239831 -0.54335 -0.461444 -0.33565 -0.581362 C -0.12795 -0.701275 0.12795 -0.701275 0.33565 -0.581362 C 0.54335 -0.461444 0.6713 -0.239831 0.6713 0 " transform="matrix(625, 0, 0, 625, 750, 750)"/>
<path fill="none" stroke-width="0.00404841" stroke-linecap="square" stroke-linejoin="miter" stroke="rgb(0%, 0%, 0%)" stroke-opacity="1" stroke-miterlimit="10" d="M 0.691438 0 C 0.691438 0.247025 0.55965 0.475288 0.345719 0.5988 C 0.131788 0.722313 -0.131787 0.722313 -0.345719 0.5988 C -0.55965 0.475288 -0.691437 0.247025 -0.691437 0 C -0.691437 -0.247025 -0.55965 -0.475287 -0.345719 -0.5988 C -0.131787 -0.722312 0.131788 -0.722312 0.345719 -0.5988 C 0.55965 -0.475287 0.691438 -0.247025 0.691438 0 " transform="matrix(625, 0, 0, 625, 750, 750)"/>
<path fill="none" stroke-width="0.00393596" stroke-linecap="square" stroke-linejoin="miter" stroke="rgb(0%, 0%, 0%)" stroke-opacity="1" stroke-miterlimit="10" d="M 0.711194 0 C 0.711194 0.254081 0.575638 0.488869 0.355594 0.615913 C 0.13555 0.74295 -0.13555 0.74295 -0.355594 0.615913 C -0.575637 0.488869 -0.711194 0.254081 -0.711194 0 C -0.711194 -0.254081 -0.575637 -0.488869 -0.355594 -0.615912 C -0.13555 -0.74295 0.13555 -0.74295 0.355594 -0.615912 C 0.575638 -0.488869 0.711194 -0.254081 0.711194 0 " transform="matrix(625, 0, 0, 625, 750, 750)"/>
<path fill="none" stroke-width="0.00383146" stroke-linecap="square" stroke-linejoin="miter" stroke="rgb(0%, 0%, 0%)" stroke-opacity="1" stroke-miterlimit="10" d="M 0.730588 0 C 0.730588 0.261013 0.591338 0.5022 0.365294 0.632706 C 0.13925 0.763213 -0.13925 0.763213 -0.365294 0.632706 C -0.591337 0.5022 -0.730587 0.261013 -0.730587 0 C -0.730587 -0.261012 -0.591337 -0.5022 -0.365294 -0.632706 C -0.13925 -0.763212 0.13925 -0.763212 0.365294 -0.632706 C 0.591338 -0.5022 0.730588 -0.261012 0.730588 0 " transform="matrix(625, 0, 0, 625, 750, 750)"/>
<path fill="none" stroke-width="0.00373405" stroke-linecap="square" stroke-linejoin="miter" stroke="rgb(0%, 0%, 0%)" stroke-opacity="1" stroke-miterlimit="10" d="M 0.749644 0 C 0.749644 0.267825 0.606763 0.5153 0.374825 0.649213 C 0.142881 0.783125 -0.142881 0.783125 -0.374825 0.649213 C -0.606762 0.5153 -0.749644 0.267825 -0.749644 0 C -0.749644 -0.267825 -0.606762 -0.5153 -0.374825 -0.649212 C -0.142881 -0.783125 0.142881 -0.783125 0.374825 -0.649212 C 0.606763 -0.5153 0.749644 -0.267825 0.749644 0 " transform="matrix(625, 0, 0, 625, 750, 750)"/>
<path fill="none" stroke-width="0.00364298" stroke-linecap="square" stroke-linejoin="miter" stroke="rgb(0%, 0%, 0%)" stroke-opacity="1" stroke-miterlimit="10" d="M 0.768388 0 C 0.768388 0.274519 0.621931 0.528181 0.384194 0.665444 C 0.146456 0.8027 -0.146456 0.8027 -0.384194 0.665444 C -0.621931 0.528181 -0.768388 0.274519 -0.768388 0 C -0.768388 -0.274519 -0.621931 -0.528181 -0.384194 -0.665444 C -0.146456 -0.8027 0.146456 -0.8027 0.384194 -0.665444 C 0.621931 -0.528181 0.768388 -0.274519 0.768388 0 " transform="matrix(625, 0, 0, 625, 750, 750)"/>
<path fill="none" stroke-width="0.00355759" stroke-linecap="square" stroke-linejoin="miter" stroke="rgb(0%, 0%, 0%)" stroke-opacity="1" stroke-miterlimit="10" d="M 0.786831 0 C 0.786831 0.281106 0.636863 0.540863 0.393413 0.681413 C 0.149969 0.821969 -0.149969 0.821969 -0.393412 0.681413 C -0.636862 0.540863 -0.786831 0.281106 -0.786831 0 C -0.786831 -0.281106 -0.636862 -0.540862 -0.393412 -0.681412 C -0.149969 -0.821969 0.149969 -0.821969 0.393413 -0.681412 C 0.636863 -0.540862 0.786831 -0.281106 0.786831 0 " transform="matrix(625, 0, 0, 625, 750, 750)"/>
<path fill="none" stroke-width="0.00347735" stroke-linecap="square" stroke-linejoin="miter" stroke="rgb(0%, 0%, 0%)" stroke-opacity="1" stroke-miterlimit="10" d="M 0.804987 0 C 0.804987 0.287594 0.651556 0.553344 0.402494 0.697138 C 0.153431 0.840938 -0.153431 0.840938 -0.402494 0.697138 C -0.651556 0.553344 -0.804987 0.287594 -0.804987 0 C -0.804987 -0.287594 -0.651556 -0.553344 -0.402494 -0.697137 C -0.153431 -0.840937 0.153431 -0.840937 0.402494 -0.697137 C 0.651556 -0.553344 0.804987 -0.287594 0.804987 0 " transform="matrix(625, 0, 0, 625, 750, 750)"/>
<path fill="none" stroke-width="0.00340175" stroke-linecap="square" stroke-linejoin="miter" stroke="rgb(0%, 0%, 0%)" stroke-opacity="1" stroke-miterlimit="10" d="M 0.822875 0 C 0.822875 0.293988 0.666038 0.565638 0.411438 0.712631 C 0.156838 0.859625 -0.156837 0.859625 -0.411437 0.712631 C -0.666037 0.565638 -0.822875 0.293988 -0.822875 0 C -0.822875 -0.293987 -0.666037 -0.565637 -0.411437 -0.712631 C -0.156837 -0.859625 0.156838 -0.859625 0.411438 -0.712631 C 0.666038 -0.565637 0.822875 -0.293987 0.822875 0 " transform="matrix(625, 0, 0, 625, 750, 750)"/>
<path fill="none" stroke-width="0.00333039" stroke-linecap="square" stroke-linejoin="miter" stroke="rgb(0%, 0%, 0%)" stroke-opacity="1" stroke-miterlimit="10" d="M 0.840506 0 C 0.840506 0.300288 0.680306 0.577756 0.420256 0.7279 C 0.1602 0.878044 -0.1602 0.878044 -0.420256 0.7279 C -0.680306 0.577756 -0.840506 0.300288 -0.840506 0 C -0.840506 -0.300287 -0.680306 -0.577756 -0.420256 -0.7279 C -0.1602 -0.878044 0.1602 -0.878044 0.420256 -0.7279 C 0.680306 -0.577756 0.840506 -0.300287 0.840506 0 " transform="matrix(625, 0, 0, 625, 750, 750)"/>
<path fill="none" stroke-width="0.00326288" stroke-linecap="square" stroke-linejoin="miter" stroke="rgb(0%, 0%, 0%)" stroke-opacity="1" stroke-miterlimit="10" d="M 0.8579 0 C 0.8579 0.3065 0.694381 0.589713 0.42895 0.742963 C 0.163513 0.896213 -0.163512 0.896213 -0.42895 0.742963 C -0.694381 0.589713 -0.8579 0.3065 -0.8579 0 C -0.8579 -0.3065 -0.694381 -0.589712 -0.42895 -0.742962 C -0.163512 -0.896212 0.163513 -0.896212 0.42895 -0.742962 C 0.694381 -0.589712 0.8579 -0.3065 0.8579 0 " transform="matrix(625, 0, 0, 625, 750, 750)"/>
<path fill="none" stroke-width="0.0031989" stroke-linecap="square" stroke-linejoin="miter" stroke="rgb(0%, 0%, 0%)" stroke-opacity="1" stroke-miterlimit="10" d="M 0.875056 0 C 0.875056 0.312625 0.708269 0.601506 0.437525 0.757819 C 0.166788 0.914131 -0.166787 0.914131 -0.437525 0.757819 C -0.708269 0.601506 -0.875056 0.312625 -0.875056 0 C -0.875056 -0.312625 -0.708269 -0.601506 -0.437525 -0.757819 C -0.166787 -0.914131 0.166788 -0.914131 0.437525 -0.757819 C 0.708269 -0.601506 0.875056 -0.312625 0.875056 0 " transform="matrix(625, 0, 0, 625, 750, 750)"/>
<path fill="none" stroke-width="0.00313816" stroke-linecap="square" stroke-linejoin="miter" stroke="rgb(0%, 0%, 0%)" stroke-opacity="1" stroke-miterlimit="10" d="M 0.891994 0 C 0.891994 0.318681 0.721981 0.61315 0.445994 0.772488 C 0.170013 0.931825 -0.170012 0.931825 -0.445994 0.772488 C -0.721981 0.61315 -0.891994 0.318681 -0.891994 0 C -0.891994 -0.318681 -0.721981 -0.61315 -0.445994 -0.772487 C -0.170012 -0.931825 0.170013 -0.931825 0.445994 -0.772487 C 0.721981 -0.61315 0.891994 -0.318681 0.891994 0 " transform="matrix(625, 0, 0, 625, 750, 750)"/>
<path fill="none" stroke-width="0.00308041" stroke-linecap="square" stroke-linejoin="miter" stroke="rgb(0%, 0%, 0%)" stroke-opacity="1" stroke-miterlimit="10" d="M 0.908719 0 C 0.908719 0.324656 0.735519 0.624644 0.454356 0.786975 C 0.1732 0.9493 -0.1732 0.9493 -0.454356 0.786975 C -0.735519 0.624644 -0.908719 0.324656 -0.908719 0 C -0.908719 -0.324656 -0.735519 -0.624644 -0.454356 -0.786975 C -0.1732 -0.9493 0.1732 -0.9493 0.454356 -0.786975 C 0.735519 -0.624644 0.908719 -0.324656 0.908719 0 " transform="matrix(625, 0, 0, 625, 750, 750)"/>
<path fill="none" stroke-width="0.0030254" stroke-linecap="square" stroke-linejoin="miter" stroke="rgb(0%, 0%, 0%)" stroke-opacity="1" stroke-miterlimit="10" d="M 0.925237 0 C 0.925237 0.330556 0.748888 0.636 0.462619 0.801281 C 0.17635 0.966556 -0.17635 0.966556 -0.462619 0.801281 C -0.748887 0.636 -0.925237 0.330556 -0.925237 0 C -0.925237 -0.330556 -0.748887 -0.636 -0.462619 -0.801281 C -0.17635 -0.966556 0.17635 -0.966556 0.462619 -0.801281 C 0.748888 -0.636 0.925237 -0.330556 0.925237 0 " transform="matrix(625, 0, 0, 625, 750, 750)"/>
<path fill="none" stroke-width="0.00297294" stroke-linecap="square" stroke-linejoin="miter" stroke="rgb(0%, 0%, 0%)" stroke-opacity="1" stroke-miterlimit="10" d="M 0.941569 0 C 0.941569 0.336388 0.762106 0.647225 0.470781 0.815419 C 0.179463 0.983619 -0.179462 0.983619 -0.470781 0.815419 C -0.762106 0.647225 -0.941569 0.336388 -0.941569 0 C -0.941569 -0.336387 -0.762106 -0.647225 -0.470781 -0.815419 C -0.179462 -0.983619 0.179463 -0.983619 0.470781 -0.815419 C 0.762106 -0.647225 0.941569 -0.336387 0.941569 0 " transform="matrix(625, 0, 0, 625, 750, 750)"/>
<path fill="none" stroke-width="0.00292283" stroke-linecap="square" stroke-linejoin="miter" stroke="rgb(0%, 0%, 0%)" stroke-opacity="1" stroke-miterlimit="10" d="M 0.957706 0 C 0.957706 0.342156 0.775169 0.658319 0.478856 0.8294 C 0.182538 1.000475 -0.182537 1.000475 -0.478856 0.8294 C -0.775169 0.658319 -0.957706 0.342156 -0.957706 0 C -0.957706 -0.342156 -0.775169 -0.658319 -0.478856 -0.8294 C -0.182537 -1.000475 0.182538 -1.000475 0.478856 -0.8294 C 0.775169 -0.658319 0.957706 -0.342156 0.957706 0 " transform="matrix(625, 0, 0, 625, 750, 750)"/>
<path fill="none" stroke-width="0.00287491" stroke-linecap="square" stroke-linejoin="miter" stroke="rgb(0%, 0%, 0%)" stroke-opacity="1" stroke-miterlimit="10" d="M 0.973669 0 C 0.973669 0.347856 0.788088 0.669294 0.486838 0.843225 C 0.185581 1.01715 -0.185581 1.01715 -0.486837 0.843225 C -0.788087 0.669294 -0.973669 0.347856 -0.973669 0 C -0.973669 -0.347856 -0.788087 -0.669294 -0.486837 -0.843225 C -0.185581 -1.01715 0.185581 -1.01715 0.486838 -0.843225 C 0.788088 -0.669294 0.973669 -0.347856 0.973669 0 " transform="matrix(625, 0, 0, 625, 750, 750)"/>
<path fill="none" stroke-width="0.00282904" stroke-linecap="square" stroke-linejoin="miter" stroke="rgb(0%, 0%, 0%)" stroke-opacity="1" stroke-miterlimit="10" d="M 0.989456 0 C 0.989456 0.3535 0.800869 0.68015 0.494731 0.856894 C 0.188588 1.033644 -0.188587 1.033644 -0.494731 0.856894 C -0.800869 0.68015 -0.989456 0.3535 -0.989456 0 C -0.989456 -0.3535 -0.800869 -0.68015 -0.494731 -0.856894 C -0.188587 -1.033644 0.188588 -1.033644 0.494731 -0.856894 C 0.800869 -0.68015 0.989456 -0.3535 0.989456 0 " transform="matrix(625, 0, 0, 625, 750, 750)"/>
<path fill="none" stroke-width="0.00278506" stroke-linecap="square" stroke-linejoin="miter" stroke="rgb(0%, 0%, 0%)" stroke-opacity="1" stroke-miterlimit="10" d="M 1.005081 0 C 1.005081 0.359081 0.813513 0.690888 0.502544 0.870425 C 0.191569 1.049969 -0.191569 1.049969 -0.502544 0.870425 C -0.813512 0.690888 -1.005081 0.359081 -1.005081 0 C -1.005081 -0.359081 -0.813512 -0.690887 -0.502544 -0.870425 C -0.191569 -1.049969 0.191569 -1.049969 0.502544 -0.870425 C 0.813513 -0.690887 1.005081 -0.359081 1.005081 0 " transform="matrix(625, 0, 0, 625, 750, 750)"/>
<path fill="none" stroke-width="0.00274287" stroke-linecap="square" stroke-linejoin="miter" stroke="rgb(0%, 0%, 0%)" stroke-opacity="1" stroke-miterlimit="10" d="M 1.020544 0 C 1.020544 0.364606 0.826031 0.701513 0.510275 0.883819 C 0.194513 1.066119 -0.194512 1.066119 -0.510275 0.883819 C -0.826031 0.701513 -1.020544 0.364606 -1.020544 0 C -1.020544 -0.364606 -0.826031 -0.701512 -0.510275 -0.883819 C -0.194512 -1.066119 0.194513 -1.066119 0.510275 -0.883819 C 0.826031 -0.701512 1.020544 -0.364606 1.020544 0 " transform="matrix(625, 0, 0, 625, 750, 750)"/>
<path fill="none" stroke-width="0.00270233" stroke-linecap="square" stroke-linejoin="miter" stroke="rgb(0%, 0%, 0%)" stroke-opacity="1" stroke-miterlimit="10" d="M 1.035856 0 C 1.035856 0.370075 0.838419 0.712038 0.517925 0.897075 C 0.197431 1.082113 -0.197431 1.082113 -0.517925 0.897075 C -0.838419 0.712038 -1.035856 0.370075 -1.035856 0 C -1.035856 -0.370075 -0.838419 -0.712037 -0.517925 -0.897075 C -0.197431 -1.082113 0.197431 -1.082113 0.517925 -0.897075 C 0.838419 -0.712037 1.035856 -0.370075 1.035856 0 " transform="matrix(625, 0, 0, 625, 750, 750)"/>
<path fill="none" stroke-width="0.00266335" stroke-linecap="square" stroke-linejoin="miter" stroke="rgb(0%, 0%, 0%)" stroke-opacity="1" stroke-miterlimit="10" d="M 1.051013 0 C 1.051013 0.375488 0.850688 0.722456 0.525506 0.910206 C 0.200319 1.09795 -0.200319 1.09795 -0.525506 0.910206 C -0.850687 0.722456 -1.051012 0.375488 -1.051012 0 C -1.051012 -0.375487 -0.850687 -0.722456 -0.525506 -0.910206 C -0.200319 -1.09795 0.200319 -1.09795 0.525506 -0.910206 C 0.850688 -0.722456 1.051013 -0.375487 1.051013 0 " transform="matrix(625, 0, 0, 625, 750, 750)"/>
<path fill="none" stroke-width="0.00262584" stroke-linecap="square" stroke-linejoin="miter" stroke="rgb(0%, 0%, 0%)" stroke-opacity="1" stroke-miterlimit="10" d="M 1.066025 0 C 1.066025 0.380856 0.862844 0.732781 0.533013 0.923206 C 0.203181 1.113631 -0.203181 1.113631 -0.533012 0.923206 C -0.862844 0.732781 -1.066025 0.380856 -1.066025 0 C -1.066025 -0.380856 -0.862844 -0.732781 -0.533012 -0.923206 C -0.203181 -1.113631 0.203181 -1.113631 0.533013 -0.923206 C 0.862844 -0.732781 1.066025 -0.380856 1.066025 0 " transform="matrix(625, 0, 0, 625, 750, 750)"/>
<path fill="none" stroke-width="0.00258971" stroke-linecap="square" stroke-linejoin="miter" stroke="rgb(0%, 0%, 0%)" stroke-opacity="1" stroke-miterlimit="10" d="M 1.0809 0 C 1.0809 0.386169 0.874881 0.743006 0.54045 0.936087 C 0.206019 1.129175 -0.206019 1.129175 -0.54045 0.936087 C -0.874881 0.743006 -1.0809 0.386169 -1.0809 0 C -1.0809 -0.386169 -0.874881 -0.743006 -0.54045 -0.936087 C -0.206019 -1.129175 0.206019 -1.129175 0.54045 -0.936087 C 0.874881 -0.743006 1.0809 -0.386169 1.0809 0 " transform="matrix(625, 0, 0, 625, 750, 750)"/>
<path fill="none" stroke-width="0.00255487" stroke-linecap="square" stroke-linejoin="miter" stroke="rgb(0%, 0%, 0%)" stroke-opacity="1" stroke-miterlimit="10" d="M 1.095644 0 C 1.095644 0.391438 0.886813 0.753138 0.547819 0.94885 C 0.208825 1.144569 -0.208825 1.144569 -0.547819 0.94885 C -0.886813 0.753138 -1.095644 0.391438 -1.095644 0 C -1.095644 -0.391437 -0.886813 -0.753138 -0.547819 -0.94885 C -0.208825 -1.144569 0.208825 -1.144569 0.547819 -0.94885 C 0.886813 -0.753138 1.095644 -0.391437 1.095644 0 " transform="matrix(625, 0, 0, 625, 750, 750)"/>
</svg>
